<?xml version="1.0" encoding="utf-8"?>
<!-- Generator: Adobe Illustrator 26.4.1, SVG Export Plug-In . SVG Version: 6.00 Build 0)  -->
<svg version="1.1" id="mate_x5F_logo_xA0_Imagen_00000026847271131811943710000009082371270180356496_"
	 xmlns="http://www.w3.org/2000/svg" xmlns:xlink="http://www.w3.org/1999/xlink" x="0px" y="0px" viewBox="0 0 512 512"
	 style="enable-background:new 0 0 512 512;" xml:space="preserve">
<style type="text/css">
	.st0{fill:#FFFFFF;}
	.st1{fill:#1C1C1C;}
</style>
<g>
	<g id="XMLID_00000001638835572969623080000005131427554852659106_">
		<g>
			<path d="M494.9,252.6c3.48,16.84,4.56,33.89,4.25,51.12c-0.22,12.29-2.55,24.21-4.73,36.15c-1.83,10.04-4.33,20.03-7.45,29.75
				c-3.08,9.62-6.58,19.25-11.21,28.19c-5.77,11.15-12.45,21.9-19.57,32.25c-5.61,8.15-12.37,15.53-18.81,23.09
				c-12.33,14.47-27.39,25.61-43.97,34.63c-13.83,7.53-28.96,10.7-44.45,13.49c-33.79,6.08-67.75,3.33-101.63,3.36
				c-10.79,0.01-21.58-4.35-32.39-6.62c-14.9-3.13-29.41-7.64-42.63-15.14c-8.47-4.8-16.19-11.01-23.89-17.05
				c-13.34-10.46-23.63-23.91-32.61-37.94c-11.64-18.17-22.31-37.07-28.02-58.25c-2.27-8.46-5.34-16.7-7.45-25.19
				c-1.34-5.37-1.96-10.99-2.26-16.53c-0.87-16.25-2.16-32.53-1.85-48.77c0.26-14.26,1.13-28.77,4.11-42.66
				c4.77-22.26,11.05-44.32,23.79-63.69c6.3-9.59,13.59-18.54,22.57-25.8c3.21-2.6,7.24-4.18,11.63-6.64
				c-18.35-14.12-36.11-27.97-54.09-41.53c-9.12-6.87-18.57-13.32-28.02-19.74c-10.11-6.86-20.43-13.42-30.6-20.19
				c-4.4-2.93-4.74-9.72-1.32-13.81c6.41-7.66,12.5-15.58,18.76-23.36c3.4-4.22,6.72-8.52,10.34-12.54
				c3.88-4.3,8.39-4.17,13.43-0.98c8.95,5.68,18.55,10.4,27.15,16.53c11.45,8.17,22.38,17.11,33.23,26.08
				c12.05,9.95,23.85,20.2,35.57,30.53c13.19,11.62,25.96,23.72,39.46,34.95c2.27,1.89,7.33,0.83,11.05,0.5
				c8.32-0.72,16.58-2.29,24.9-2.69c14.58-0.69,29.22-1.43,43.79-0.93c16.87,0.58,33.7,2.32,50.53,3.85
				c11.75,1.07,23.51,2.28,35.16,4.09c9.62,1.49,19.15,3.74,28.62,6.06c9.63,2.36,19.4,4.52,28.63,8.04
				c16.25,6.18,31.27,14.76,41.16,29.68c3.62,5.45,5.53,12.09,7.83,18.34c4.49,12.17,9.11,24.31,12.9,36.7
				C490.09,230.65,492.63,241.62,494.9,252.6z M475.63,312.94c1.88-18.67,1.1-37.68-3.33-56.14c-2.8-11.64-6.21-23.15-9.75-34.59
				c-3.59-11.62-7.59-23.11-11.57-34.6c-3.2-9.23-7.13-18.08-16.72-22.51c-8.09-3.75-16.08-8.04-24.57-10.55
				c-13.19-3.88-26.7-6.85-40.21-9.46c-11.7-2.26-23.58-3.7-35.43-5.1c-13.3-1.57-26.65-3.62-39.99-3.77
				c-20.16-0.22-40.41-1.78-60.51,1.71c-4.57,0.79-9.29,0.71-14.34,1.06c4.14,4.41,7.95,8.19,11.43,12.24
				c2.47,2.86,5.2,4.14,9.05,3.83c7.08-0.55,14.2-1.03,21.3-1c20.24,0.07,40.49,0.19,60.72,0.73c10.98,0.29,22,0.95,32.87,2.38
				c13.36,1.77,26.64,4.26,39.85,6.94c10.6,2.14,21.34,3.9,30.86,9.86c10.36,6.48,12.18,19.03,3.52,27.71
				c-5.03,5.06-10.53,9.23-17.75,10.81c-14.68,3.22-29.2,7.35-44,9.77c-10.46,1.71-21.29,1.68-31.95,1.65
				c-27.26-0.07-54.53-0.19-81.78-1.06c-14.86-0.47-29.71-2.18-44.49-3.94c-12.79-1.53-25.49-3.84-38.21-5.94
				c-9.18-1.52-17.73-4.89-24.35-11.49c-4.2-4.2-7.5-9.3-5.44-16.14c2.84-9.46,9.87-14.15,18.46-17.33c2.82-1.04,5.59-2.21,8.34-3.3
				c-3.21-3.41-6.21-6.59-9.53-10.11c-6.58,4.05-13.03,7.34-18.7,11.67c-10.64,8.11-17.59,19.51-22.92,31.31
				c-6.96,15.43-11.36,31.8-14.23,48.69c-2.09,12.28-3.4,24.42-3.22,36.78c0.14,9.83,0.24,19.68,1.07,29.46
				c0.83,9.91,2.24,19.79,3.89,29.6c3.12,18.45,9.44,35.92,18.8,52.04c7.48,12.89,15.71,25.42,24.51,37.44
				c9.72,13.26,22.07,24.07,36.67,31.74c11.57,6.07,23.94,10.37,36.9,12.68c9.14,1.62,18.23,3.61,27.41,4.91
				c6.03,0.86,12.19,1.04,18.29,1.08c17.36,0.1,34.76,0.58,52.08-0.26c12.04-0.58,23.97-3.25,35.99-4.7
				c14.26-1.72,26.64-7.94,38.4-15.66c4.36-2.86,8.59-6,12.58-9.36c5.79-4.89,11.78-9.67,16.83-15.27
				c5.45-6.04,9.99-12.91,14.79-19.52c11.89-16.37,20.46-34.52,27.68-53.29C471.24,347.57,473.9,330.16,475.63,312.94z
				 M371.01,195.94c11.74-1.3,23.42-3.14,35.13-4.75c-48.82-15.46-98.81-16.01-149.36-14.38c6.86,7.69,13.16,14.95,19.72,21.96
				c1.16,1.25,3.37,2.14,5.09,2.12c8.93-0.1,17.86-0.56,26.79-0.89c9.1-0.33,18.21-0.45,27.29-1.05
				C347.46,198.17,359.26,197.25,371.01,195.94z M229.81,198.64c6.85,1.4,14.21,0.36,22.26,0.36
				C193.32,138.11,133.41,80.01,65.55,32.6c-5.42,5.24-10.14,9.81-14.98,14.49c9.64,6.78,19.81,13.83,29.85,21.05
				c9.16,6.57,18.23,13.26,27.23,20.04c7.45,5.61,14.88,11.25,22.05,17.19c9.75,8.08,19.51,16.18,28.79,24.77
				c9.15,8.47,17.85,17.45,26.51,26.43c10.77,11.16,21.1,22.76,32.04,33.75C220.59,193.89,225.15,197.68,229.81,198.64z
				 M167.35,188.8c8.46,1.67,15.66,3.1,23.35,4.62c-3.83-4.12-7.07-7.59-9.89-10.61C176.56,184.71,172.53,186.5,167.35,188.8z"/>
			<path class="st0" d="M472.3,256.8c4.43,18.46,5.21,37.47,3.33,56.14c-1.73,17.22-4.39,34.63-10.7,51
				c-7.22,18.77-15.79,36.92-27.68,53.29c-4.8,6.61-9.34,13.48-14.79,19.52c-5.05,5.6-11.04,10.38-16.83,15.27
				c-3.99,3.36-8.22,6.5-12.58,9.36c-11.76,7.72-24.14,13.94-38.4,15.66c-12.02,1.45-23.95,4.12-35.99,4.7
				c-17.32,0.84-34.72,0.36-52.08,0.26c-6.1-0.04-12.26-0.22-18.29-1.08c-9.18-1.3-18.27-3.29-27.41-4.91
				c-12.96-2.31-25.33-6.61-36.9-12.68c-14.6-7.67-26.95-18.48-36.67-31.74c-8.8-12.02-17.03-24.55-24.51-37.44
				c-9.36-16.12-15.68-33.59-18.8-52.04c-1.65-9.81-3.06-19.69-3.89-29.6c-0.83-9.78-0.93-19.63-1.07-29.46
				c-0.18-12.36,1.13-24.5,3.22-36.78c2.87-16.89,7.27-33.26,14.23-48.69c5.33-11.8,12.28-23.2,22.92-31.31
				c5.67-4.33,12.12-7.62,18.7-11.67c3.32,3.52,6.32,6.7,9.53,10.11c-2.75,1.09-5.52,2.26-8.34,3.3
				c-8.59,3.18-15.62,7.87-18.46,17.33c-2.06,6.84,1.24,11.94,5.44,16.14c6.62,6.6,15.17,9.97,24.35,11.49
				c12.72,2.1,25.42,4.41,38.21,5.94c14.78,1.76,29.63,3.47,44.49,3.94c27.25,0.87,54.52,0.99,81.78,1.06
				c10.66,0.03,21.49,0.06,31.95-1.65c14.8-2.42,29.32-6.55,44-9.77c7.22-1.58,12.72-5.75,17.75-10.81
				c8.66-8.68,6.84-21.23-3.52-27.71c-9.52-5.96-20.26-7.72-30.86-9.86c-13.21-2.68-26.49-5.17-39.85-6.94
				c-10.87-1.43-21.89-2.09-32.87-2.38c-20.23-0.54-40.48-0.66-60.72-0.73c-7.1-0.03-14.22,0.45-21.3,1
				c-3.85,0.31-6.58-0.97-9.05-3.83c-3.48-4.05-7.29-7.83-11.43-12.24c5.05-0.35,9.77-0.27,14.34-1.06
				c20.1-3.49,40.35-1.93,60.51-1.71c13.34,0.15,26.69,2.2,39.99,3.77c11.85,1.4,23.73,2.84,35.43,5.1
				c13.51,2.61,27.02,5.58,40.21,9.46c8.49,2.51,16.48,6.8,24.57,10.55c9.59,4.43,13.52,13.28,16.72,22.51
				c3.98,11.49,7.98,22.98,11.57,34.6C466.09,233.65,469.5,245.16,472.3,256.8z M403.02,415c8.89-8.2,9.14-12.36,1.15-21.3
				c-1-1.11-2.12-2.13-3.07-3.28c-5.15-6.26-10.25-12.55-15.41-18.81c-0.73-0.88-1.56-1.75-2.5-2.38
				c-3.27-2.15-9.46-1.08-11.76,2.19c-3.02,4.27,1.26,5.59,3.35,7.88c7.16,7.85,14.21,15.79,21.52,23.93
				c-7.01,6.63-13.68,12.85-20.24,19.19c-1.65,1.59-3.29,3.37-4.34,5.37c-1.9,3.61,0.29,8.17,4.29,9.7c4.43,1.7,9.26-0.46,10.6-4.38
				c0.71-2.07,1.83-4.22,3.34-5.77C394.14,423.07,398.61,419.06,403.02,415z M361.19,351.61c2.01-2.17,5.35-4.22,3.06-7.45
				c-2.23-3.16-5.62-5.5-9.56-9.19c-2.62,3.07-4.63,4.8-5.83,6.98c-1.67,3.02-2.45,6.53-4.09,9.56
				c-13.48,24.81-27.05,49.57-40.64,74.32c-2.25,4.11-0.62,7.89,4.85,10.62c5.47,2.74,7.69,2.01,9.68-3.21
				c1.24-3.25,2.13-6.68,3.74-9.74c11.8-22.52,23.73-44.98,35.67-67.43C358.91,354.48,359.97,352.93,361.19,351.61z M296.29,377.87
				c1.95-2.06,3.87-3.89,1.3-6.72c-4.19-4.63-11.1-3.98-14.5,1.18c-2.27,3.44-4.78,6.75-7.42,9.92c-4.04,4.85-8.59,9.3-12.36,14.34
				c-5.22,6.96-4.53,12.06,1.82,17.96c4.75,4.42,9.73,8.59,14.4,13.08c1.46,1.4,2.12,3.59,3.41,5.21c1.4,1.77,3.03,4.51,4.71,4.63
				c2.81,0.2,6.46-0.59,8.41-2.4c1.51-1.42,1.68-5.18,1.15-7.61c-0.44-1.99-2.66-3.7-4.32-5.3c-6.47-6.23-13.02-12.36-20.13-19.08
				C280.69,394.57,288.44,386.18,296.29,377.87z"/>
			<path d="M404.17,393.7c7.99,8.94,7.74,13.1-1.15,21.3c-4.41,4.06-8.88,8.07-13.07,12.34c-1.51,1.55-2.63,3.7-3.34,5.77
				c-1.34,3.92-6.17,6.08-10.6,4.38c-4-1.53-6.19-6.09-4.29-9.7c1.05-2,2.69-3.78,4.34-5.37c6.56-6.34,13.23-12.56,20.24-19.19
				c-7.31-8.14-14.36-16.08-21.52-23.93c-2.09-2.29-6.37-3.61-3.35-7.88c2.3-3.27,8.49-4.34,11.76-2.19c0.94,0.63,1.77,1.5,2.5,2.38
				c5.16,6.26,10.26,12.55,15.41,18.81C402.05,391.57,403.17,392.59,404.17,393.7z"/>
			<path class="st1" d="M406.14,191.19c-11.71,1.61-23.39,3.45-35.13,4.75c-11.75,1.31-23.55,2.23-35.34,3.01
				c-9.08,0.6-18.19,0.72-27.29,1.05c-8.93,0.33-17.86,0.79-26.79,0.89c-1.72,0.02-3.93-0.87-5.09-2.12
				c-6.56-7.01-12.86-14.27-19.72-21.96C307.33,175.18,357.32,175.73,406.14,191.19z"/>
			<path d="M364.25,344.16c2.29,3.23-1.05,5.28-3.06,7.45c-1.22,1.32-2.28,2.87-3.12,4.46c-11.94,22.45-23.87,44.91-35.67,67.43
				c-1.61,3.06-2.5,6.49-3.74,9.74c-1.99,5.22-4.21,5.95-9.68,3.21c-5.47-2.73-7.1-6.51-4.85-10.62
				c13.59-24.75,27.16-49.51,40.64-74.32c1.64-3.03,2.42-6.54,4.09-9.56c1.2-2.18,3.21-3.91,5.83-6.98
				C358.63,338.66,362.02,341,364.25,344.16z"/>
			<path d="M297.59,371.15c2.57,2.83,0.65,4.66-1.3,6.72c-7.85,8.31-15.6,16.7-23.53,25.21c7.11,6.72,13.66,12.85,20.13,19.08
				c1.66,1.6,3.88,3.31,4.32,5.3c0.53,2.43,0.36,6.19-1.15,7.61c-1.95,1.81-5.6,2.6-8.41,2.4c-1.68-0.12-3.31-2.86-4.71-4.63
				c-1.29-1.62-1.95-3.81-3.41-5.21c-4.67-4.49-9.65-8.66-14.4-13.08c-6.35-5.9-7.04-11-1.82-17.96c3.77-5.04,8.32-9.49,12.36-14.34
				c2.64-3.17,5.15-6.48,7.42-9.92C286.49,367.17,293.4,366.52,297.59,371.15z"/>
			<path class="st0" d="M252.07,199c-8.05,0-15.41,1.04-22.26-0.36c-4.66-0.96-9.22-4.75-12.77-8.32
				c-10.94-10.99-21.27-22.59-32.04-33.75c-8.66-8.98-17.36-17.96-26.51-26.43c-9.28-8.59-19.04-16.69-28.79-24.77
				c-7.17-5.94-14.6-11.58-22.05-17.19c-9-6.78-18.07-13.47-27.23-20.04c-10.04-7.22-20.21-14.27-29.85-21.05
				c4.84-4.68,9.56-9.25,14.98-14.49C133.41,80.01,193.32,138.11,252.07,199z"/>
			<path class="st1" d="M190.7,193.42c-7.69-1.52-14.89-2.95-23.35-4.62c5.18-2.3,9.21-4.09,13.46-5.99
				C183.63,185.83,186.87,189.3,190.7,193.42z"/>
		</g>
		<g>
		</g>
	</g>
</g>
</svg>
